<?xml version="1.0" encoding="UTF-8"?>
<svg version="1.1" xmlns="http://www.w3.org/2000/svg" xmlns:xlink="http://www.w3.org/1999/xlink">
    <g id="Page-1" stroke="none" stroke-width="1" fill="none" fill-rule="evenodd">
        <g class="mapa" transform="translate(-85,-5) scale(0.625,0.625)" fill-rule="nonzero">
            <g transform="translate(0, 0)">
                <g class="place" data-place="primer-cordon" transform="translate(142.134831, 24.719101)" fill="#9DF2E5" stroke="#646464" stroke-linecap="square" stroke-linejoin="round" stroke-width="0.99802166">
                    <path d="M64.1577584,195.873882 C62.9906124,196.861084 65.3192697,197.662247 65.8631629,198.54273 C72.8888652,204.85473 79.6760787,211.472882 86.7299213,217.782067 C87.0246236,218.741994 88.7098483,219.709809 89.5731573,220.640511 C92.4127135,223.270697 95.6789494,225.963489 98.3112303,228.461618 C96.5075,229.313264 97.0181629,231.011489 95.7637247,231.777185 C95.3229888,233.811393 94.7560393,236.051736 93.279736,237.715753 C92.8869213,240.258955 93.4987022,242.896674 92.3339213,245.188191 C90.7324045,245.551449 91.5924551,247.901376 90.0180112,248.293427 C89.3598315,249.753607 88.0513764,251.015618 88.7753989,252.785455 C88.4782135,254.315775 86.4015169,253.885708 85.6374382,255.126938 C84.1541011,255.539989 84.2387191,257.602337 82.8372416,258.079337 C82.1896573,258.996702 80.8544663,258.938169 80.4994157,260.206067 C79.4678315,260.896 78.889236,261.964646 77.7418371,262.566601 C76.5192697,264.172904 75.1706348,265.819303 73.0679438,265.818607 C71.7092809,267.003944 69.3018539,265.557096 68.6248371,267.603343 C68.1086629,269.457994 65.9580899,267.752713 64.7499719,268.631202 C63.6663202,269.512073 62.4094663,269.147472 61.2759045,269.714051 C59.4117584,270.588815 57.8897584,272.42009 55.7174831,272.364674 C54.1844775,274.133039 51.7879382,274.673208 49.6534944,275.498657 C48.2851011,275.783983 47.2819607,277.178045 45.8201854,276.708624 C44.9917978,277.595169 46.1331124,279.174843 44.6827191,279.751944 C44.0340169,280.812494 42.4531629,279.383921 42.1143202,280.982438 C41.2298876,281.561225 40.5242303,283.084399 39.2296854,282.292551 C38.4919494,281.406096 37.4902079,279.386303 36.3450449,280.92 C34.8971011,282.109489 32.8734494,282.782882 30.961382,282.942949 C29.1986067,282.942949 27.3820449,282.530331 25.7540506,282.119579 C24.3482022,281.451124 22.4924663,282.270685 20.9115562,281.737702 C19.6310112,282.228427 18.8480056,283.659118 17.2712303,283.547371 C15.8460899,284.229596 13.7741236,284.973348 12.7631798,283.109253 C11.5942584,281.828624 10.2673539,280.711051 9.31823034,279.216365 C8.09756742,277.657944 6.40489326,276.529157 5.59691011,274.681045 C4.20529775,273.895511 3.1001236,272.237421 4.04732022,270.588213 C4.08456742,269.345253 4.14389888,268.396534 4.71911798,267.318017 C4.8391573,266.025826 4.78948315,265.235101 4.8032809,264.26214 C4.83226966,261.623337 5.47383708,259.053376 5.41340449,256.395225 C4.53381461,253.934635 4.96153933,251.119354 5.49894944,248.617287 C5.46585955,247.404635 5.57483708,246.233242 5.47827528,245.056573 C3.73593258,243.976708 4.64091011,242.125472 6.34986517,241.529624 C9.31121348,239.743854 12.2822247,237.977225 15.226882,236.160972 C10.9295169,227.421764 5.36016854,219.505011 0.277044944,211.265663 C7.80963483,207.003972 15.1239494,201.907657 20.7453146,195.086489 C22.1587303,193.016084 23.5922303,191.109258 25.1236124,189.091028 C25.842809,186.746601 28.073073,185.120208 28.0277079,182.45664 C28.9934326,181.207837 28.4512753,179.21918 30.0066742,178.343893 C30.1291966,176.761876 32.5028202,176.972989 32.2973764,175.196096 C33.0553933,173.443146 34.5295,172.123028 34.8481011,170.107657 C34.897764,168.435933 35.9714045,167.129674 36.6801292,165.714607 C36.709118,164.57123 37.0518315,161.388191 38.2168202,163.669624 C46.8631573,174.40182 55.516118,185.140601 64.1561236,195.876607" class="place" data-place="moreno"></path>
                    <path d="M132.128287,246.326073 C132.189545,248.189039 131.118472,249.878129 130.956343,251.736725 C129.175764,260.604219 127.29841,269.447303 125.443326,278.301596 C125.122534,279.831051 124.820865,281.365135 124.50918,282.896843 C120.839539,279.101022 117.215219,275.262562 113.477522,271.545455 C108.20177,266.709567 103.269242,261.481629 98.0854663,256.538624 C95.3514944,253.842326 92.7816067,250.969202 90.0209775,248.299876 C91.1884944,248.010657 91.0495393,246.659371 91.4734382,245.787809 C92.0422528,245.358303 92.8466742,244.967034 92.7354944,244.074129 C92.8542921,243.375927 93.1154775,242.783494 93.0935393,242.06473 C93.232618,241.253393 92.9258989,240.455522 93.1444382,239.613882 C93.2677921,238.675989 93.0301966,237.551315 93.9142978,236.952865 C94.5038483,235.854084 95.0935674,234.659702 95.4093933,233.488663 C95.3969775,232.72586 95.6233933,231.615129 96.3818258,231.328848 C96.9372247,230.975118 96.1781742,229.755927 97.3289663,229.406826 C97.8245169,228.822017 98.3630281,228.450747 99.0517191,228.238596 C99.6325337,228.000899 99.8161517,227.207011 100.215011,226.947146 C101.264101,227.138949 100.169449,225.616376 100.952208,225.646382 C102.180157,225.391798 102.954607,224.117534 104.232017,223.94664 C104.631871,222.635275 106.217489,223.162972 106.95568,222.277253 C107.73982,222.169444 108.521725,221.85468 108.845865,221.032994 C109.654635,220.152646 110.210865,221.177607 110.868427,221.748124 C112.748011,223.526837 114.627562,225.305551 116.507107,227.084264 C116.2335,227.681803 114.877736,228.301854 115.591545,228.864927 C121.067888,234.299562 126.520635,239.765506 131.985011,245.214388 C132.059522,245.583708 132.087669,245.960039 132.132371,246.333994" class="place" data-place="ituzaingó"></path>
                    <path d="M103.217753,117.20068 C106.914551,122.951118 110.795129,128.657702 114.246264,134.531719 C114.777039,135.953663 115.614736,137.393798 117.021213,138.046669 C118.913421,141.126837 121.747607,143.370815 124.117483,146.029399 C128.079607,150.132927 132.059489,154.225062 136.118511,158.221994 C130.958573,162.672713 125.528056,166.787584 120.298747,171.155522 C117.725129,173.242073 115.081399,175.236708 112.724348,177.597416 C111.734904,176.768152 110.977421,175.510433 109.884702,174.879163 C108.978831,175.280955 108.469994,176.474949 107.686848,177.127129 C106.894433,177.789781 106.168865,179.187702 105.353725,179.380848 C101.772742,175.994876 97.9427416,172.885051 94.4961629,169.353084 C92.4796067,167.516225 91.6421966,164.73541 89.8655506,162.705191 C85.883809,161.242629 82.2454157,159.00441 78.4053596,157.201708 C74.5407978,155.431528 71.043882,152.921966 67.6517303,150.347157 C65.829264,149.744685 65.2070562,147.621764 63.974264,146.260084 C62.4868708,144.51514 60.8742191,142.882124 59.3552416,141.164202 C60.5427079,140.422096 61.7033539,139.634787 62.8928876,138.896669 C62.7637416,138.037489 64.5828989,137.602096 65.2511348,136.930393 C66.4741573,136.282202 67.154236,134.97373 68.0938427,133.980376 C68.9550955,134.154433 70.0605225,135.732118 70.7052079,134.709191 C72.1885449,133.800522 73.6545449,132.861421 75.1269101,131.933096 C75.9159775,133.120938 76.6722135,134.33186 77.4642191,135.517236 C78.8501573,134.46677 80.6168315,133.694618 81.7704775,132.481404 C82.0627079,131.351056 81.7266011,129.761511 83.0978933,129.410157 C89.5951348,125.654433 95.7657921,121.31641 101.95259,117.042298 C102.362376,117.076961 102.787107,117.110275 103.216674,117.199466" class="place" data-place="malvinas_argentinas"></path>
                    <path d="M59.3568596,141.165152 C61.7301067,143.78291 64.2410506,146.275843 66.1512135,149.302927 C66.8521124,150.280309 68.2374045,150.384697 69.0220843,151.345056 C73.2724213,154.838927 78.2316742,157.135551 83.0872921,159.53423 C85.2599831,160.918337 87.7383539,161.702826 89.992927,162.846725 C91.6997753,164.920416 92.5838876,167.651006 94.6037978,169.472539 C94.4705112,169.863944 93.2487753,170.790315 92.8360899,171.586978 C91.1011292,173.783152 89.5588876,175.992236 87.6143989,178.007562 C84.006264,182.106978 80.5046685,186.309264 76.7699551,190.285713 C75.9967865,189.618208 75.3721742,192.500073 74.5593146,191.236118 C73.7294326,190.461281 72.8331236,189.770657 71.9904157,189.011882 C71.1549944,189.96709 70.2921236,190.898534 69.5054213,191.898382 C68.6642472,190.628708 67.9243539,191.492691 67.2574438,192.425994 C66.2126124,193.563354 65.2274326,194.761635 64.1574831,195.872579 C55.2431685,184.798601 46.3172247,173.715652 37.3979888,162.647904 C38.3792753,161.353118 39.2998034,159.966635 40.0720618,158.514292 C40.3493933,157.3555 40.1883764,156.264337 39.7910056,155.200843 C40.0170112,154.113618 41.2704944,153.517163 41.8959382,152.620708 C43.6639326,150.42336 44.3273258,147.389174 44.0777697,144.581129 C43.8737079,142.225618 42.8698596,140.045112 42.3212022,137.804292 C42.601427,136.14586 42.2922135,134.479157 41.4576742,133.057079 C40.9868315,131.237927 40.9564101,129.183152 39.5310618,127.809955 C38.4173146,127.416388 38.9074438,124.945062 39.6920787,125.735225 C40.5060225,126.681039 41.3368876,127.605725 42.479073,128.059039 C43.3019551,128.727713 43.9011517,129.895382 44.9045449,130.131348 C48.1995056,133.504202 52.0506124,136.167202 55.6747247,139.135017 C56.9060674,139.80659 58.1157191,140.521545 59.3596011,141.167534" class="place" data-place="josé_c._paz"></path>
                    <path d="M346.44182,342.29068 C349.095118,346.648011 352.035674,350.775219 355.279017,354.655854 C357.959388,356.439545 360.47091,358.547787 362.818522,360.714354 C366.75991,362.720197 370.655472,364.904517 375.042242,365.637697 C377.295522,366.318152 379.226022,367.899994 381.667388,368.013213 C384.632163,369.035185 385.594702,372.534854 386.668421,375.275101 C387.769169,379.401399 388.608152,383.931354 390.067107,387.772719 C390.764365,391.546927 392.324567,395.368376 393.352051,399.153758 C393.579713,400.990837 395.205107,403.159567 394.722843,404.782927 C382.547393,417.996197 370.100399,430.662674 357.745798,443.768697 C364.620669,450.020084 371.240056,456.567663 377.960118,462.998601 C371.123663,470.089421 364.287208,477.180242 357.450753,484.271062 C359.773326,486.763045 356.840674,487.484449 354.929045,488.558989 C351.054674,490.711483 347.057202,492.945674 343.225421,494.95464 C341.785713,495.795635 339.69486,499.67077 338.68418,498.512455 C336.004848,490.528511 331.61514,483.353084 327.613444,476.044135 C330.106843,474.49191 332.598006,472.935652 335.088629,471.378534 C329.651275,462.677382 324.314966,453.907472 318.980848,445.135831 C323.26,442.321983 327.440758,439.017067 331.783399,436.508758 C335.079685,437.220775 338.280893,438.60159 341.679708,438.612545 C339.776067,435.546753 338.604787,431.888185 335.468028,429.895112 C332.550112,427.023725 328.960685,424.761039 327.298618,420.785758 C324.323,415.863927 321.734067,410.700758 318.643708,405.853961 C323.307972,402.916281 328.027455,400.07191 332.604045,396.985202 C329.504916,392.350775 326.546972,387.611438 323.191949,383.169983 C323.761674,381.717382 320.849017,379.521809 320.059618,377.779202 C319.048815,375.42941 316.812258,379.373388 316.081685,375.866534 C314.304045,374.162157 316.550163,373.469545 315.063927,371.754084 C313.409556,369.117669 311.738669,366.622955 310.032101,363.907135 C314.210455,360.909708 318.646691,358.341697 323.002618,355.642584 C324.03677,357.36882 325.400522,359.659517 326.306978,361.02336 C327.249899,359.723376 328.567831,358.336326 327.779719,356.526438 C328.395764,355.488404 327.754888,354.224315 328.179567,353.261876 C328.871157,352.472876 329.379124,351.373708 329.271129,350.165084 C328.763949,348.158242 331.590303,347.836764 332.707775,346.639955 C336.469601,344.035792 340.429989,341.769343 344.184404,339.157865 C344.933152,340.198236 345.687281,341.235539 346.437404,342.276955" class="place" data-place="florencio_varela"></path>
                    <path d="M218.959966,33.513723 C220.846854,35.406436 222.147691,36.5107989 223.634506,38.564359 C224.302983,40.9143275 250.26809,34.1438275 250.915045,36.775268 C253.39968,40.959282 253.963348,38.8853466 255.644624,43.3791056 C256.715242,45.8335921 252.401742,68.0173933 252.167871,70.6329433 C250.475393,73.3131787 245.407051,76.6184876 244.346989,79.4682303 C245.34823,82.0641685 241.992921,83.8881236 239.72714,82.7581685 C239.073017,84.7133146 235.314528,85.6151854 235.03459,87.858427 C235.709809,90.3120056 232.877534,90.6255169 231.70741,92.0689382 C230.147927,90.505927 234.412978,95.9031685 232.722983,96.3159551 C230.571803,96.4211685 228.103174,95.8751124 229.504803,98.984764 C228.758899,101.157517 225.671337,100.710775 225.789663,102.852657 C228.202551,105.218691 225.017994,106.846039 223.347674,104.67991 C221.040848,104.581191 221.545449,107.708421 222.651826,108.792393 C221.827084,111.161461 219.561674,112.641596 218.671202,115.034949 C216.155455,117.810955 221.687837,114.60891 218.401736,117.230736 C216.203882,118.27527 206.90782,117.102006 206.769449,118.972983 C204.951904,119.780421 205.032539,121.684348 202.95791,119.869309 C199.616551,118.837028 197.298079,116.341152 195.06127,113.750022 C194.888663,114.169567 192.168522,113.241764 193.839781,111.950264 C192.138803,110.218185 189.042236,111.34277 187.521972,109.029039 C185.500702,106.214803 184.778275,108.596073 183.749635,110.611275 C179.909494,113.928579 176.616685,117.653129 172.361466,120.584657 C169.894354,121.501247 166.581798,121.767478 164.654938,122.959478 C165.685118,126.204039 162.180708,128.629303 162.094157,131.856848 C160.897376,133.443888 163.805691,134.569472 162.044494,136.140663 C162.332169,137.765933 162.790713,138.953343 161.181461,140.490674 C160.72391,141.880152 160.482011,143.932674 158.528,143.540534 C157.615174,145.023966 160.271404,146.715433 161.602213,146.847966 C162.652466,148.621657 164.018624,148.876758 164.145489,151.383983 C166.123096,156.632876 162.605455,151.362354 161.433624,151.858944 C160.977646,153.804567 164.050573,155.506124 162.169994,157.340213 C161.243011,159.294843 160.994202,161.371522 160.442691,163.517129 C159.943871,165.497691 160.830124,167.340916 160.821843,169.371399 C161.797006,171.7315 159.246657,173.228781 159.516011,175.611787 C158.814107,176.783438 159.602517,180.273062 158.128989,179.910882 C151.097163,173.118596 143.941163,166.290326 137.237989,159.260983 C134.12023,159.568388 136.913888,158.425837 135.048539,157.187506 C129.250579,151.19664 123.161629,145.437927 117.741045,139.097826 C116.260933,137.581876 114.685416,136.072556 113.956949,133.975657 C109.176663,126.709011 105.036511,118.808888 99.1994775,112.369376 C98.0447416,106.67782 93.8215955,102.407298 91.0814157,97.4815225 C90.3461348,95.425191 86.8815337,92.7530955 87.7449157,91.0586854 C90.9703764,88.9797079 94.1839888,86.8804719 97.4098371,84.8023202 C95.3529888,83.0349494 92.1250169,81.9422303 96.2311011,82.9380112 C99.4760618,81.832427 99.8181685,77.3388444 101.705416,74.7345079 C103.939983,72.1228978 102.752393,70.588941 99.9463596,69.5115039 C98.0375506,68.3647056 96.1363146,67.2037494 94.2303989,66.0514961 C95.8269888,62.7049685 99.8476404,62.0124388 102.547916,59.8188579 C105.621343,58.023173 108.723292,55.7564208 111.791669,54.2457573 C113.25986,56.5904871 114.747174,57.6617758 116.461438,54.7172579 C119.132573,50.8835567 119.496787,45.7485315 121.222438,41.383927 C124.943034,28.6036674 128.25832,15.675377 132.216466,2.98036854 C133.331084,0.185613483 135.79236,-0.10106236 137.817691,0.253147191 C145.087567,1.41462303 152.329994,3.39830225 159.353831,5.62175787 C164.760843,7.73718876 170.140118,10.1356062 175.114287,13.1849455 C177.402416,15.8414107 180.451135,17.2004923 183.447449,18.8145045 C186.74009,21.1819216 190.480601,23.3331586 194.292096,24.2960759 C198.392343,23.921127 202.598685,21.2835389 206.60759,23.4099885 C210.626809,24.9510674 215.647843,30.8076399 218.959966,33.513723 L218.959966,33.513723 Z" class="place" data-place="tigre"></path>
                    <path d="M303.82336,246.20077 C304.052264,247.653461 305.87514,247.673073 306.149865,248.110326 C306.204472,249.247253 305.457079,250.702669 306.687388,251.372466 C307.306494,250.435747 306.955607,248.918112 307.195685,247.754298 C307.677573,246.289573 308.551039,247.732669 308.932388,247.848685 C310.30827,247.652551 309.631006,249.03618 309.865247,249.9755 C309.741899,251.019427 310.774472,251.904281 310.060618,252.898629 C310.289517,253.904107 310.349955,255.083815 311.340556,255.633506 C312.321348,256.201517 312.663292,257.168371 313.19059,258.088775 C315.141787,259.844449 316.828612,261.921478 318.814742,263.644337 C318.416135,264.749876 319.07386,265.033253 320.20532,264.670466 C322.336657,265.709764 324.036725,267.41868 325.911348,268.860287 C326.918096,269.671449 327.761551,270.864185 329.15436,270.802657 C330.752854,272.219888 332.53641,273.384051 334.271084,274.596573 C336.120624,275.619584 337.831208,276.884062 339.61973,278.014843 C333.824213,283.721685 328.380118,289.806034 322.554421,295.479843 C318.096955,300.228747 314.099028,305.426938 309.698107,310.236112 C301.410185,301.63827 293.218337,292.934298 285.001073,284.264927 C284.344629,285.538281 283.617449,284.679275 282.916758,283.942798 C280.091933,281.387348 277.268596,278.798208 274.984354,275.693404 C273.843579,275.003343 275.403039,274.343242 275.780826,273.641663 C273.597337,271.573034 271.367157,269.561736 269.149596,267.5335 C270.066938,266.820927 270.773006,265.544888 271.801899,265.164871 C272.378124,265.747646 273.847719,266.486764 273.356927,264.980865 C272.954596,263.404 275.955713,264.563051 274.812287,265.467601 C273.402629,265.917978 274.382011,267.204966 275.486157,266.711517 C276.60077,267.426562 277.789354,266.624056 278.602674,265.807483 C280.311685,266.273702 280.39832,263.389843 282.080921,263.789815 C283.427955,263.945685 284.74241,263.633949 286.035427,263.368972 C287.178354,264.094669 287.906404,262.779921 288.514596,262.018938 C289.366646,261.517393 290.517607,260.877854 290.057236,259.653904 C291.177522,258.500309 292.674022,257.71309 294.137994,257.259472 C295.003674,256.287112 296.128551,255.616017 297.132444,254.821607 C297.287253,253.502708 295.301163,252.397427 296.650803,251.223483 C298.676753,249.109483 301.243219,247.466376 303.828949,246.196051" class="place" data-place="avellaneda"></path>
                    <path d="M339.61977,278.011118 C342.662073,279.826371 345.645388,281.808837 348.442399,283.993674 C349.338584,284.461579 350.442949,284.361697 351.367062,285.448483 C352.01018,286.529646 353.497904,286.23332 354.000573,287.334831 C354.969197,287.059899 355.398534,288.698287 356.485775,288.569652 C357.821798,289.168489 358.131039,289.659427 359.458534,290.249478 C361.466152,291.404152 363.246315,292.97764 365.20314,294.168253 C367.198961,293.006994 365.573191,295.215343 366.318792,295.244607 C366.96559,295.979051 367.596781,296.836713 368.529146,297.113292 C369.61818,297.444511 370.27818,298.80186 371.476697,298.701416 C372.483652,300.294208 374.527775,301.369225 376.026966,302.710079 C377.353927,303.341517 377.644747,304.510871 378.364354,305.490371 C379.462331,307.02186 381.526157,307.693955 381.899848,309.72214 C382.479506,311.229944 383.553472,312.357522 384.046871,313.888882 C384.638124,314.823348 385.348831,315.666944 385.900427,316.626528 C374.384101,323.600056 363.266511,331.259494 351.89486,338.481067 C350.074169,339.555562 348.2575,340.635163 346.439545,341.715803 C345.685787,340.677421 344.938944,339.634017 344.186556,338.596713 C339.218764,341.934494 334.107376,345.036657 329.172242,348.436309 C329.290624,349.557303 329.553051,350.883607 328.709478,351.747331 C328.903191,352.586983 327.345596,352.907899 328.097697,353.919961 C328.293483,354.968775 327.512989,355.813146 327.928815,356.870624 C328.357764,358.498708 326.861303,359.359663 326.246213,360.579978 C324.793051,357.815096 322.9895,355.197337 321.426478,352.470994 C319.86764,349.940781 318.242781,347.448494 317.251764,344.61036 C314.88768,340.145955 312.420067,335.757494 309.656961,331.551444 C307.702163,328.357017 305.772736,325.093876 304.477944,321.54368 C303.417882,322.018517 303.209803,319.771938 302.519624,319.06668 C301.941292,318.525994 303.904697,317.154011 304.360966,316.280242 C310.175652,309.776697 315.842725,303.129404 321.546022,296.523331 C327.092854,290.989197 332.471343,285.273006 337.947972,279.662843 C338.505983,279.108511 339.063955,278.554185 339.621921,277.99986" class="place" data-place="quilmes"></path>
                    <path d="M210.605989,365.309831 C211.221118,368.488629 211.483011,371.832517 212.4525,374.885753 C213.357051,374.93682 213.777888,375.584601 212.747629,375.920972 C212.835798,378.327185 213.213584,380.964124 213.140045,383.495725 C213.256354,387.715022 213.991612,391.80318 215.458017,395.669438 C215.819376,399.347966 215.926607,403.115163 216.016815,406.838888 C215.487185,413.278573 213.828674,419.713365 212.221629,426.088056 C211.957534,430.050612 214.986433,433.215466 216.311904,436.704567 C217.813247,440.198348 219.879433,443.485556 222.300146,446.338416 C214.487742,453.782882 207.302427,461.922871 199.74873,469.653573 C197.960865,466.166157 196.078584,469.84191 194.235011,471.275073 C191.645376,473.709989 189.05827,476.147893 186.462298,478.57541 C190.098045,482.42123 193.733831,486.267011 197.369573,490.112837 C197.523966,496.524466 197.678775,502.936135 197.833084,509.347758 C195.750011,510.512567 194.753326,506.715326 193.003006,505.751629 C191.053629,503.707764 189.105826,501.662303 187.157236,499.617618 C185.564955,501.805612 183.607629,497.394685 181.841169,496.694315 C171.17509,487.390994 160.570601,478.00991 149.80282,468.835006 C152.835472,466.647489 155.233876,463.737 157.741303,460.950815 C154.115534,453.182579 150.017562,445.701309 145.342702,438.570219 C141.622062,432.5335 137.896787,426.499854 134.178961,420.461225 C136.005275,420.43527 135.9965,419.114831 136.326815,417.715354 C136.405045,415.853815 136.347489,413.94582 137.358725,412.205725 C136.632871,410.495376 137.554927,409.133871 138.285916,407.453051 C137.244938,405.213056 140.606455,404.614871 139.759489,402.766579 C140.736803,401.392607 141.300528,399.778809 142.412989,398.418258 C143.468742,397.515 144.218483,396.091843 145.065826,395.087011 C144.590601,393.385365 145.699174,391.966191 146.223989,390.627287 C147.276185,389.787416 148.366792,389.191483 148.201303,387.75282 C148.556865,386.046326 149.388685,384.712966 150.263472,383.301062 C150.960607,382.065242 150.246899,380.017354 151.590927,379.543646 C152.137517,378.014933 152.593202,376.351169 152.686584,374.786562 C151.931174,373.737955 153.309045,372.412691 153.718084,371.370236 C155.483511,371.054174 155.654213,368.395371 157.508635,368.02514 C157.688281,366.441045 160.216556,365.344169 161.087837,367.081315 C162.925579,367.499129 162.837826,364.539371 163.129713,363.203494 C164.287669,363.212146 165.354775,363.816966 164.413719,361.639618 C165.374146,360.551404 165.475562,358.770657 166.811831,358.40168 C168.530607,357.91386 165.613809,356.693197 167.361646,356.021449 C169.213213,355.044803 168.151994,353.700921 168.119129,352.142067 C167.8745,350.123753 169.86473,349.145247 170.413921,347.60709 C168.710169,346.407989 169.816545,345.644758 171.066848,344.409202 C172.652079,342.162281 173.584197,345.913719 175.193242,344.189685 C175.88959,343.120865 178.397511,342.529652 176.625006,341.124719 C174.630966,341.949652 176.420944,340.483713 176.225567,339.53227 C175.000449,338.997815 175.875803,336.867489 176.836522,336.999893 C178.109006,337.308163 178.880646,336.247393 179.764208,335.941809 C178.850843,335.027904 178.55414,333.76273 179.321725,332.764702 C178.923528,331.092539 181.132348,330.356584 182.480421,330.77786 C183.986112,330.689534 184.440309,329.348292 185.828236,330.594713 C186.628685,329.30677 187.837758,328.316444 188.144146,326.627876 C189.608826,325.516236 188.148079,328.185433 189.490652,327.791303 C191.146927,328.457506 191.964348,330.512798 191.995871,332.118803 C192.612084,330.805573 194.052798,332.088522 195.069674,330.93386 C196.813865,331.448871 197.305281,329.320494 196.395888,328.047011 C196.551938,326.515135 194.834826,324.083983 196.795326,323.067034 C197.923017,321.965871 199.865893,323.929978 200.563691,322.01709 C202.702393,322.556348 203.831455,319.279399 205.891719,319.880444 C204.955219,324.555483 204.244388,329.240528 204.193388,334.019781 C204.209961,338.325247 203.557438,342.629404 203.697096,346.900966 C205.074927,350.38141 207.763944,353.230287 208.829343,356.898163 C209.95364,359.576062 209.985803,362.547551 210.53264,365.361792" class="place" data-place="ezeiza"></path>
                    <path d="M207.636949,121.457213 C206.958157,121.54727 207.368315,122.721517 206.417983,122.754421 C204.370551,123.990197 202.297079,125.168343 200.365601,126.597393 C197.055848,128.633242 193.722101,130.659871 190.329208,132.527343 C187.182101,134.248343 184.113242,136.189157 180.973955,137.953539 C179.107944,138.970747 177.331629,140.223062 175.394904,141.066652 C174.462803,140.923343 174.110264,141.862056 173.492652,142.361006 C172.431831,143.003702 171.202556,143.454893 170.245416,144.210247 C169.877022,144.999112 169.604039,145.884489 168.725404,146.171545 C167.606522,146.818264 166.467775,147.546949 165.377669,148.171674 C164.853764,148.017107 164.333337,148.492938 163.77909,148.25091 C163.567989,148.715826 162.91668,149.266646 162.541045,148.461331 C162.481022,147.867343 162.193764,147.142472 161.648129,146.87286 C160.768247,146.612213 159.742213,146.418596 159.202663,145.542831 C158.77918,145.023185 157.76564,144.320955 158.431028,143.591624 C159.020742,143.082803 159.992596,143.773904 160.431315,142.929185 C160.713612,142.242371 160.582809,141.385837 161.147691,140.899831 C161.118702,139.669039 162.558017,139.13623 162.747635,137.969944 C162.527837,137.348685 161.480612,137.162202 161.970534,136.356758 C162.404157,135.599197 163.12923,134.38832 162.178736,133.722202 C161.222528,133.169039 162.182669,132.099747 162.258208,131.310315 C162.570725,130.090522 162.784056,128.842146 163.538354,127.807185 C164.041725,126.711522 164.720522,125.637416 164.978517,124.454944 C165.046404,123.840691 164.169129,122.710393 164.97964,122.607781 C167.478416,121.811466 170.076287,121.36014 172.550478,120.498539 C174.536404,119.258393 176.122107,117.421921 177.963612,115.965079 C178.638101,115.43409 179.262506,114.83677 179.926607,114.291404 C179.934865,113.720972 180.980208,113.249601 181.378242,112.72073 C182.602831,111.494528 184.413213,110.61227 184.782433,108.730208 C184.811421,107.847478 185.293051,107.104725 186.12591,107.804831 C187.247893,108.650978 188.198135,109.777596 189.416152,110.477011 C190.191303,110.628983 190.925236,110.793079 191.704489,110.964489 C192.457624,111.074893 193.428483,111.231629 193.84609,111.947669 C193.027056,112.354225 193.268708,113.091219 193.847213,113.696247 C194.197393,114.46264 194.678494,112.976787 195.23518,113.532584 C194.840298,114.199309 196.189399,114.478876 196.374051,115.147596 C196.954994,116.124236 198.050242,116.624618 198.66777,117.514753 C199.058101,118.192472 199.998747,118.343966 200.620416,118.784079 C202.178596,119.620225 203.956028,120.0615 205.300781,121.265107 C206.074404,121.453882 206.845343,121.524022 207.637713,121.450848" class="place" data-place="san_fernando"></path>
                    <path d="M207.636949,121.457213 C209.376011,121.537747 211.070798,122.160135 212.837949,122.178101 C213.496337,122.557382 214.659562,123.196742 213.785831,124.057612 C213.393848,124.508242 212.913449,126.006567 213.912079,125.842298 C213.556522,125.080624 214.542927,123.329882 214.249,124.972556 C214.443129,126.627697 215.803163,127.848534 216.30136,129.424185 C216.939713,130.480837 217.647607,131.767876 218.593466,132.422 C220.395983,132.201191 218.725096,133.590624 219.364607,134.243275 C218.000354,135.320624 219.430006,135.027331 219.894764,134.041511 C220.433152,133.067596 220.608781,134.838994 221.048494,135.237365 C221.985039,136.162876 220.24159,137.299584 221.599466,137.752725 C223.904528,138.514573 225.460343,140.641826 226.938882,142.505787 C227.230287,143.509101 227.270022,144.635725 228.164758,145.334708 C229.312612,146.362006 228.071213,147.734247 228.271966,148.994135 C227.803028,149.969309 229.728607,150.556584 228.061281,150.917247 C219.506871,155.441399 211.121472,160.302051 202.603702,164.904657 C201.80586,165.382478 200.986169,165.814494 200.18241,166.280191 C201.089854,167.197691 199.471124,167.471584 199.023713,168.107309 C198.320124,168.735893 197.585989,169.327022 196.896556,169.973393 C196.215607,168.762562 195.57241,169.422663 194.917584,170.262618 C192.499815,172.802011 190.12182,175.375994 187.632022,177.840742 C180.75641,170.68623 173.916152,163.501758 167.017815,156.376478 C166.184584,155.778854 165.40864,154.926079 164.777697,154.085736 C164.265713,152.208697 163.960236,150.22082 163.438612,148.371747 C164.017236,148.231466 164.662955,148.285157 165.247461,148.126258 C166.212826,147.888124 167.148197,146.984826 168.119764,146.528309 C169.172949,146.087287 169.908949,145.325354 170.253084,144.183708 C171.615972,143.116747 173.562674,142.789169 174.554376,141.194635 C176.546528,140.969927 178.10382,139.433287 179.882989,138.584242 C184.269388,136.065803 188.594933,133.430208 193.014983,131.011567 C196.457921,128.982298 199.917376,126.976062 203.197803,124.672292 C204.518888,123.834978 206.062865,123.135865 207.212045,122.14827 C207.213169,121.833938 207.174798,121.350702 207.633006,121.45509" class="place" data-place="san_isidro"></path>
                    <path d="M228.883096,150.516753 C229.118618,151.244438 229.347646,152.505539 228.483247,152.810522 C228.292427,153.769236 228.242343,154.910927 229.051978,155.577135 C229.992949,156.910713 229.852051,158.663404 230.504449,160.114921 C231.132483,159.532494 232.027281,161.171966 231.009011,161.085202 C230.029253,160.564084 230.097343,162.195933 230.988337,161.620348 C230.652629,162.402674 231.358371,163.316494 231.387758,164.174242 C232.025949,164.396354 232.834551,163.406635 233.112253,164.393758 C233.511691,165.098455 234.077978,165.409972 234.208669,166.300197 C234.959404,166.754551 234.777152,168.148225 234.216927,168.668264 C233.192949,169.169421 233.651163,169.737517 234.10227,170.517983 C234.450371,171.367287 235.014933,172.05341 235.262669,172.963809 C235.732888,173.425006 236.239444,174.019596 235.95723,174.728146 C236.628287,175.530348 237.693848,175.922876 238.633337,175.367854 C239.48109,175.0375 239.974989,176.444253 240.485315,175.157433 C241.530185,174.922331 241.963191,176.123854 242.633247,176.720787 C239.702292,177.929848 237.079135,179.766444 234.424966,181.505888 C232.37364,182.460146 230.297893,183.318112 228.421287,184.627056 C225.178107,186.444478 221.78509,187.963455 218.63968,189.966051 C217.866551,190.462798 216.826567,190.723573 216.707691,191.834045 C215.149433,195.948478 213.6545,200.118944 212.021528,204.196011 C211.293107,202.847584 210.004478,201.981562 209.365376,200.567669 C207.512242,197.544916 205.577354,194.550994 203.813416,191.471129 C203.204073,189.8905 203.16086,188.022118 201.953652,186.764787 C200.664567,185.932753 202.658607,185.936129 202.074933,185.118472 C201.700747,184.295101 201.388646,183.439865 200.972034,182.637882 C199.803691,183.581185 198.549124,184.412607 197.751326,185.753938 C197.240876,186.075202 196.827725,187.747882 196.257006,186.92741 C193.437438,183.843949 190.540011,180.861287 187.646517,177.85659 C190.507888,175.019792 193.229292,172.045787 196.026921,169.141062 C196.648219,170.109174 197.254191,169.912607 197.912096,169.097747 C198.77114,168.357028 199.615382,167.594618 200.554545,166.964348 C199.673494,166.067331 201.172163,165.898084 201.713039,165.442904 C208.419753,161.697916 215.172444,158.040174 221.863612,154.269343 C224.205539,153.017848 226.510393,151.688213 228.896719,150.530242" class="place" data-place="vicente_lópez"></path>
                    <path d="M152.679371,216.701556 C147.095781,211.069051 141.684921,205.256303 135.962213,199.775601 C137.095331,199.50586 136.923803,198.228787 137.498287,197.382596 C138.131758,197.049646 139.332343,197.224562 139.371708,196.102354 C139.372831,194.946118 140.558691,194.396382 141.54027,194.322433 C142.135202,193.34973 143.654708,194.26659 143.919096,192.920051 C145.109539,192.658107 144.648011,191.629685 144.88809,190.753489 C145.294978,189.997961 146.817348,190.392393 146.656787,189.320803 C147.305528,188.499854 148.024972,189.395275 148.531865,188.365247 C149.201343,189.422596 149.847275,187.76182 150.469028,188.395528 C151.217281,189.027612 152.179073,189.563669 152.904725,190.434798 C158.070579,195.195826 163.203736,199.983309 168.240202,204.894579 C173.142017,209.653612 178.084478,214.367753 182.999494,219.113539 C190.278101,220.508039 197.595657,221.70636 204.877663,223.101073 C203.071545,226.910747 201.828242,230.993011 200.226399,234.909455 C199.939545,237.670483 200.311253,240.527584 200.370028,243.32377 C200.633287,249.345034 201.129747,255.38418 200.971461,261.413017 C196.059298,257.22723 191.29077,252.842579 186.48414,248.531792 C184.47541,246.471084 182.4455,244.43177 180.442146,242.364921 C179.424101,243.047927 178.399084,243.722444 177.389039,244.419781 C174.671545,239.959876 171.869775,235.164427 169.261174,230.88568 C168.671579,229.898949 168.196101,228.348972 167.05,229.684067 C166.093287,230.732197 165.331511,230.082831 164.642331,229.072461 C160.66732,224.939191 156.578219,220.911348 152.668539,216.714994" class="place" data-place="3_de_febrero"></path>
                    <path d="M124.505831,282.896539 C128.693056,287.884871 133.946129,291.628517 139.076124,295.458107 C139.080056,296.79736 137.442365,298.449601 138.413404,299.430657 C139.164803,300.628331 142.063376,301.718455 141.353798,302.97518 C138.974646,305.38568 136.713365,307.90368 134.421961,310.394236 C133.335219,309.503663 132.367792,308.457618 131.326596,307.507949 C128.365713,310.637691 125.355118,313.721449 122.230904,316.654713 C121.785022,317.654607 119.397011,318.636657 120.693713,319.571522 C123.699506,322.493135 126.741848,325.379202 129.725787,328.325972 C126.927371,331.072624 124.22436,334.072736 121.398669,336.685343 C120.098034,337.037775 119.366174,335.067781 118.312326,334.403303 C117.253713,333.20018 116.238275,331.962629 115.217787,333.897646 C111.563039,337.745848 107.930028,341.616393 104.289067,345.480146 C99.6744382,341.178669 95.1578202,336.76886 90.6012584,332.410185 C86.6021292,336.516573 82.5626854,340.578056 78.5578483,344.67786 C72.9139101,339.479011 67.6211854,333.823 61.333927,329.456489 C52.0005562,322.287388 42.5818764,315.217826 33.3928034,307.855062 C29.2087303,304.054567 25.0574438,300.215022 20.9053427,296.376511 C20.6619551,292.586539 19.7623652,288.901393 19.7056573,285.079421 C19.3596124,283.730736 19.3496798,281.621107 21.1783989,281.766236 C22.9411629,282.269989 24.8917528,281.39518 26.4004663,282.35559 C29.1562079,282.90918 32.2817079,283.516112 34.8013876,281.780264 C36.0648483,281.77577 37.3831966,279.037421 38.381,281.23568 C38.8879775,282.78509 40.977882,282.898657 41.5392416,281.369034 C42.3389888,280.858697 42.8178539,279.57023 43.981809,280.282287 C45.1504438,279.637466 45.8708764,278.653034 45.4773202,277.231607 C45.881309,276.174258 47.5289719,277.300444 48.1297416,276.08641 C50.6442921,275.065775 53.5595169,274.455421 55.6266966,272.56509 C57.0593708,272.251624 58.6818708,271.570393 59.922236,270.466506 C61.0745169,269.86559 62.0875955,269.083826 63.4178258,269.373264 C64.7172191,268.004399 66.6611292,268.630034 68.197118,268.353629 C68.7122079,267.084562 69.6211854,266.015781 71.1028652,266.47191 C72.9195393,265.744315 75.0506685,265.872775 76.3769213,264.235596 C77.279236,262.654921 78.9791404,261.937758 79.9665562,260.567551 C80.8828202,259.978888 81.2256685,258.764545 82.4095337,258.579365 C83.3902022,257.742657 84.2221067,256.921972 84.768073,255.652084 C85.9796292,254.657253 87.3850281,254.151983 88.6428202,253.346534 C88.6179888,251.823404 88.5128483,250.340191 89.5691798,249.128146 C90.3110169,247.25764 91.7918708,250.671152 92.8382303,251.156247 C99.3908539,257.943944 106.138315,264.523 112.92059,271.056635 C116.898646,274.867478 120.639404,278.956242 124.499871,282.904202" class="place" data-place="merlo"></path>
                    <path d="M200.983242,261.399062 C213.605365,272.895747 226.176528,284.48886 238.864051,295.926534 C234.916247,301.355888 229.814056,306.059073 225.935253,311.339528 C227.162994,312.319157 225.878545,315.847534 224.951522,312.977444 C223.692736,311.307792 220.994326,311.592208 220.649067,309.086287 C218.662191,308.735584 216.983815,306.83014 215.015562,306.572567 C214.845865,307.966854 214.239826,309.729758 213.40486,311.18864 C214.333871,313.469596 211.482596,314.006904 212.035472,316.072242 C210.294427,316.657567 211.162601,319.726219 209.340427,319.180466 C208.251337,319.799994 207.010764,320.604017 205.550275,319.745011 C203.623169,320.11173 202.422994,322.303236 200.432944,322.212051 C199.585888,324.004489 197.276444,321.623652 196.264315,323.550787 C195.437253,325.095781 196.561096,327.110461 196.686101,328.665848 C197.878163,331.00127 195.319904,330.815702 193.991045,331.573478 C192.737348,330.530202 191.815292,333.372539 191.928045,331.017466 C191.859747,329.061107 190.034674,328.135854 188.875601,327.396522 C189.463045,325.392062 187.43014,327.076562 187.633831,328.281938 C186.751466,329.196669 185.893197,331.622753 184.644472,329.892573 C183.667983,331.087994 181.89386,330.635326 180.390944,330.841551 C179.033107,331.682455 179.52427,333.037169 178.895848,334.199202 C179.54273,335.437663 180.362882,336.753011 178.433084,336.460112 C177.916174,337.906006 175.840427,336.218517 175.694972,338.262034 C175.858062,339.442775 176.98327,340.208045 175.568315,341.209669 C176.271983,341.07891 178.012039,341.364236 177.083691,342.830258 C175.571213,343.261927 174.147933,346.242337 172.914646,343.617393 C171.604618,343.731697 169.95877,345.342809 169.398607,346.554202 C172.319629,347.707326 168.14127,349.417326 168.387393,351.253146 C167.570635,353.093124 169.760376,354.882399 167.441163,356.024567 C165.705702,356.685404 168.539837,357.856275 166.957281,358.374708 C165.57068,358.774337 165.323483,360.606303 164.472539,361.821551 C165.765433,364.397315 163.76659,362.398612 163.125213,363.498 C163.230354,364.977792 162.194551,368.770921 160.535292,366.368742 C159.288264,365.796489 157.767629,366.838421 157.440792,368.127837 C155.621472,368.663202 155.321213,371.183758 153.566213,371.669938 C152.696978,372.924719 152.42064,374.29536 152.723466,375.541309 C152.249152,377.182854 152.281062,379.352494 150.828107,380.249039 C151.139376,382.886191 149.196669,384.73314 148.449287,386.944994 C148.12932,388.379888 148.243978,389.763084 146.55641,390.343781 C145.486292,391.795298 144.971865,393.61064 145.019096,395.527427 C143.674466,396.68418 142.869669,398.401112 141.46059,399.58432 C140.322876,401.969449 139.915657,403.911949 138.290798,405.987893 C138.83068,407.890348 137.08123,409.370837 137.122831,410.895225 C138.033258,412.78118 135.725545,415.012472 136.532573,417.099326 C135.875056,418.299337 136.622809,420.356966 134.700545,420.277736 C133.787264,420.536213 132.383067,422.022287 131.101888,422.975118 C129.007225,423.845725 127.856146,425.862483 125.816904,426.778292 C124.708253,428.116809 123.665039,428.940528 122.132152,429.492949 C121.280961,430.732618 119.80627,429.514579 118.740461,430.997506 C116.194494,431.705062 115.076236,435.127831 112.150163,435.094624 C108.730989,435.867208 106.712938,431.693933 104.084809,429.889674 C95.3763876,422.198809 87.6374101,413.409848 78.880264,405.763921 C76.4627809,403.475826 74.0282079,401.207556 71.5947022,398.938118 C73.9291124,396.483157 76.2353315,393.998449 78.5645674,391.537292 C74.0967921,387.310287 69.6289382,383.083107 65.1513539,378.867354 C62.8474944,380.475303 65.4237135,377.237888 66.2045449,378.185994 C68.1251067,376.82964 70.0888483,378.462663 72.1422416,377.586466 C73.8252978,377.072708 75.2969663,378.645545 76.7964045,377.208056 C78.3791292,376.055888 80.340427,375.365433 81.8919775,376.31614 C83.2522584,375.334129 85.3390955,374.900775 86.2087079,373.042051 C87.2597865,371.496882 87.9512472,370.518331 90.1875169,371.469517 C91.7292584,372.355798 93.5976292,371.255629 95.3668258,371.634478 C96.859309,370.926753 98.0072472,370.350775 99.3669888,369.49359 C100.319011,367.716736 101.198972,367.808831 102.609253,367.011 C99.1958315,363.118461 94.1801461,359.691573 90.2436011,355.857528 C86.3042022,352.183331 82.4767303,348.387298 78.5620393,344.68773 C82.5672528,340.588146 86.6062022,336.526444 90.6054551,332.420056 C95.162882,336.777781 99.6775955,341.189753 104.293264,345.490017 C108.352326,341.184163 112.395787,336.864803 116.484944,332.59082 C118.248843,333.809146 119.5705,336.905938 121.706556,336.611348 C124.271562,333.738573 127.062567,331.104579 129.729978,328.335843 C126.550876,325.192073 123.29673,322.128618 120.108062,318.996022 C123.693146,315.004112 127.73114,311.510337 131.330792,307.51782 C132.73859,308.442983 134.246472,311.772758 135.584315,309.167124 C137.561798,306.865124 139.721444,304.729646 141.796404,302.514461 C140.271303,300.726096 136.734612,299.537517 138.701579,296.78268 C139.654596,292.253983 143.926421,289.802006 146.554961,286.309309 C154.973888,277.113489 163.175466,267.576326 171.862163,258.724326 C174.183281,258.124236 170.264455,253.758202 173.015185,253.742657 C174.623489,252.940545 178.820927,253.976022 178.15836,251.572539 C177.947258,249.761618 182.687107,251.638354 182.980247,249.601202 C185.263702,248.057028 187.07582,248.410461 188.733955,250.57109 C192.828742,254.168348 196.813466,257.91286 200.982635,261.416208" class="place" data-place="la_matanza"></path>
                    <path d="M271.543736,265.144309 C270.740225,265.937287 269.953438,266.745028 269.143927,267.530253 C271.361775,269.558185 273.591045,271.570612 275.775157,273.638416 C275.323522,274.358742 273.851652,275.037938 275.030303,275.748303 C277.271826,278.804309 280.049792,281.348466 282.827062,283.86032 C283.468309,284.31173 284.148927,285.644315 284.763601,284.499376 C285.373191,284.139152 285.975697,285.513258 286.571792,285.929253 C294.266803,294.043129 301.932517,302.187921 309.692433,310.232865 C307.167455,313.148854 304.503354,315.942831 302.153713,319.016933 C300.462506,319.099197 298.704567,319.012438 297.056404,319.252034 C295.139191,320.433601 293.254017,321.675174 291.310022,322.809157 C290.352365,321.90768 289.403197,320.997152 288.44691,320.094022 C287.834421,320.319601 287.158073,321.181292 286.592944,321.032264 C285.305803,319.955646 284.362264,318.318994 282.658798,317.952185 C279.679994,316.712427 276.43164,316.557511 273.323775,315.82086 C270.716713,315.270303 268.01023,314.838506 265.451933,314.299331 C260.092815,305.528039 254.40736,296.964264 249.020135,288.208949 C248.289433,287.028944 247.526281,285.871365 246.801213,284.687635 C250.855848,279.090803 254.619326,273.261433 258.713826,267.701236 C260.622472,265.661096 263.438107,264.826079 266.059489,264.469618 C267.452135,264.408135 268.530989,265.867056 269.97318,265.27909 C270.501888,265.166084 271.002697,264.96259 271.542579,265.147466" class="place" data-place="lanús"></path>
                    <path d="M216.543978,307.149888 C223.105006,318.259067 229.970185,329.166185 236.736685,340.138725 C240.554517,346.046809 243.960034,352.228404 247.917522,358.034393 C250.566803,362.505034 253.129573,366.819326 255.939955,371.247056 C252.722022,373.236927 249.448135,375.135921 246.275157,377.20091 C252.409017,387.637955 258.909236,397.845309 265.031506,408.296601 C266.006876,409.90364 266.959854,411.52536 267.942225,413.127163 C262.290545,416.470747 257.033994,420.513315 251.195472,423.530742 C248.945382,424.540725 246.721657,425.921107 245.917444,428.488208 C244.738629,430.963781 241.690079,430.841685 239.643056,432.17959 C235.833916,433.398135 233.371938,436.89923 230.263826,439.313017 C227.634371,441.654152 225.004916,443.995247 222.375466,446.336337 C218.920646,442.500949 216.842994,437.625876 214.515292,433.009287 C213.129433,430.387371 211.431848,427.366826 212.677427,424.310646 C214.334287,418.291416 215.722584,412.249888 216.112831,406.147528 C215.900489,402.606511 215.926567,399.009388 215.51264,395.51409 C213.686697,390.988163 213.178236,386.046416 213.173972,381.085916 C213.211219,379.367343 212.805994,377.580017 212.80227,375.944876 C213.371247,375.776449 213.898669,375.025511 212.928101,375.04214 C211.722792,374.424944 212.143219,372.539725 211.716129,371.361056 C210.863652,367.187567 210.435242,362.958607 209.605118,358.782084 C208.607893,354.634871 206.101663,351.179972 204.053983,347.55873 C203.362646,345.188933 204.146702,342.654949 204.05286,340.209989 C204.517489,334.510118 204.18614,328.710101 205.460618,323.110848 C205.601348,322.008904 205.914236,320.935882 206.040938,319.82641 C207.32286,320.476725 208.378534,319.835062 209.220539,319.092961 C211.119663,320.0115 210.059478,317.508607 211.2825,316.902067 C213.002725,316.268073 211.447657,314.317343 212.908972,313.648152 C214.402534,312.935444 212.659376,310.68168 214.190646,309.751281 C215.338253,308.678 214.03791,306.723933 215.58036,306.400118 C215.981034,306.361129 216.340983,306.834079 216.61227,307.098107" class="place" data-place="esteban_echeverría"></path>
                    <path d="M323.006017,355.099275 C318.650539,357.799208 314.21236,360.363927 310.035494,363.36382 C311.977337,366.480876 313.890287,369.249483 315.762758,372.344843 C315.38236,373.299798 314.92514,374.236343 316.262197,375.58932 C316.909573,377.417871 317.975551,377.203202 319.236534,376.07182 C320.717596,378.157893 322.198657,380.244017 323.679719,382.33009 C322.758944,383.296382 325.3605,384.999978 325.810062,386.253112 C328.181972,389.569719 330.304573,393.072854 332.607438,396.441893 C328.030725,399.528382 323.311157,402.372624 318.647101,405.310646 C319.594579,406.866775 320.54027,408.424112 321.489893,409.978803 C316.013511,413.511421 310.543837,417.05577 305.065753,420.585528 C304.182938,419.46891 303.500337,417.401888 302.451702,416.923371 C293.230792,422.440444 284.015933,427.955444 274.807983,433.500399 C271.25291,427.467534 267.713365,421.418517 264.154567,415.387337 C265.411326,414.620596 266.697303,413.907888 267.944747,413.124652 C261.069921,401.609348 254.110287,390.144051 247.119809,378.709191 C245.583281,377.263388 247.059376,376.525567 248.365966,375.866163 C255.506949,371.433624 262.952534,367.120758 269.944994,362.690433 C269.153242,361.434916 268.475978,360.208669 267.443236,359.088152 C266.688197,357.946545 269.243933,357.573893 269.948433,356.756669 C277.7045,352.046298 285.043331,346.617157 292.899489,342.087809 C293.572573,341.280022 296.101607,340.866281 295.405511,339.776635 C294.744062,338.68777 293.115101,337.388736 295.111624,336.871213 C299.423348,334.199506 303.756635,331.567073 307.997331,328.778292 C311.429921,334.352343 315.022163,339.843787 317.808579,345.807511 C319.065,349.131393 321.313438,351.981522 323.029815,355.063989" class="place" data-place="almirante_brown"></path>
                    <path d="M187.633444,177.842994 C190.644837,180.957191 193.634803,184.075242 196.579669,187.261354 C197.767399,185.720949 198.818421,184.024326 200.495848,183.015685 C201.299646,182.04177 201.435702,184.153567 201.864197,184.669618 C203.059112,185.753247 200.688489,185.813253 201.884871,186.668191 C203.469247,188.35914 203.156034,191.017556 204.579517,192.834281 C206.555798,195.932028 208.379837,199.181831 210.444118,202.189517 C211.113478,203.020382 212.541517,203.956798 211.645039,205.139489 C209.35914,211.111135 207.138685,217.105775 204.872202,223.081747 C197.590365,221.686084 190.272478,220.489404 182.994034,219.094213 C174.410781,210.909112 165.976208,202.550612 157.293775,194.486051 C155.272461,192.718376 153.352882,190.825753 151.389517,188.987551 C152.48559,189.22741 152.330449,187.533472 153.410045,187.506416 C154.139876,186.658404 155.168152,186.100096 155.421758,184.880298 C156.273242,183.202163 156.885438,181.303865 158.463191,180.222966 C159.418034,179.322612 158.793506,177.730337 159.327051,176.608174 C159.456612,175.498045 159.714899,174.529022 159.868921,173.44886 C159.96909,172.40736 161.580124,171.729292 160.998185,170.498888 C160.514933,169.49709 161.291247,168.288461 160.569983,167.302556 C160.004562,166.179961 160.336944,165.170758 160.536893,164.107135 C160.295989,162.510483 161.440118,161.057146 161.202607,159.402691 C162.194163,158.70077 161.865258,157.265354 162.739921,156.516236 C163.08182,155.12191 161.98041,154.121326 161.438955,153.041466 C161.171562,151.753517 161.554028,150.812685 162.518888,152.21186 C164.570253,153.914326 166.377567,155.851331 168.287376,157.681045 C174.748893,164.381073 181.178461,171.116815 187.629427,177.834421" class="place" data-place="san_martín"></path>
                    <path d="M152.679371,216.701556 C156.990517,221.346118 161.552416,225.747264 165.88173,230.376365 C166.693309,230.194522 167.786112,228.627315 168.372764,229.361713 C169.470079,231.069848 170.417882,232.76764 171.525461,234.612427 C173.471197,237.885393 175.43373,241.147056 177.399871,244.406343 C178.410882,243.710652 179.433815,243.032624 180.452978,242.351483 C182.369983,244.339101 184.3295,246.281994 186.243489,248.272691 C185.181152,248.776966 184.062067,249.130955 182.979899,249.584579 C183.06186,250.403444 181.341051,250.529916 180.579764,250.734101 C179.844011,251.096927 177.693635,250.121933 178.134213,251.434944 C178.983006,253.020079 177.531213,252.946213 176.391303,253.12464 C174.909169,253.385287 173.428478,253.654809 171.946135,253.914242 C172.217669,255.330517 172.282652,256.799657 172.766944,258.163028 C170.505388,259.27259 169.19718,261.649663 167.377073,263.361697 C158.023129,273.425051 148.968169,283.790096 139.606489,293.84336 C139.44464,295.425848 138.740101,295.5925 137.732652,294.436478 C133.291287,291.127101 128.764073,287.851927 125.141326,283.539101 C123.931882,282.790202 125.049022,281.309067 125.055646,280.173309 C127.159949,270.107101 129.276511,260.048899 131.328292,249.976022 C131.590309,248.758433 132.260865,247.588989 132.128781,246.319017 C136.439427,245.683073 140.744489,246.914517 145.062461,246.946904 C146.67664,247.072461 148.475517,247.097573 149.983978,247.142169 C150.05559,246.14518 151.032904,246.047978 150.888404,244.958764 C151.187258,243.579202 150.787404,242.098629 151.540331,240.859393 C151.484433,239.635051 152.342107,238.406596 151.496848,237.304478 C151.056017,236.224315 150.147579,235.23486 150.632989,234.003674 C150.310955,233.139775 149.12523,232.015534 150.23314,231.229876 C150.840657,230.557522 150.578354,229.437219 150.843264,228.584236 C150.135371,227.629022 149.547348,226.274399 150.40123,225.176225 C151.047039,224.085972 151.363399,222.850371 151.976337,221.747388 C152.334798,220.091292 152.846657,218.40991 152.675747,216.693202" class="place" data-place="morón"></path>
                    <path d="M246.802494,284.686073 C252.965865,294.639449 259.36791,304.431034 265.516545,314.387399 C270.76218,315.275584 276.013865,316.277298 281.203826,317.41773 C282.82227,317.924213 284.398854,318.505904 285.478034,319.936292 C286.282663,321.270567 287.223511,321.193022 288.279725,320.199972 C289.33432,320.597433 290.291438,322.013275 291.311303,322.80773 C293.437303,321.708989 295.367303,320.004011 297.545124,319.147213 C299.19991,319.155865 300.865421,318.938522 302.513045,319.077073 C303.164062,320.049904 303.620416,321.903826 304.561803,321.802034 C305.40236,324.277781 306.77609,326.501972 307.965708,328.806129 C303.340062,331.855511 298.591483,334.69677 293.900152,337.638994 C294.184101,338.648022 296.472399,340.071747 295.05918,340.704522 C290.398601,343.718966 285.554242,346.402669 281.012124,349.621124 C276.425225,352.717438 271.747882,355.661006 267.053404,358.576556 C267.800287,359.757084 268.744079,360.623101 269.333713,361.804708 C269.642084,362.332629 270.395011,362.992725 269.260034,363.194101 C264.808899,365.883775 260.366006,368.588949 255.91077,371.272388 C253.65836,367.727039 251.512331,364.158663 249.41291,360.642067 C246.733618,355.910652 243.442343,351.601421 240.859539,346.804933 C235.433775,338.26164 230.212579,329.582528 224.848949,320.997753 C222.062163,316.395191 219.220742,311.83259 216.514792,307.175213 C217.465247,308.133281 219.022596,307.793663 219.799904,309.072865 C221.537101,308.591882 220.875157,311.559219 222.600848,311.552809 C224.183899,311.539831 224.840135,313.117292 225.67527,314.122208 C226.715831,314.170242 226.455927,311.891646 225.907478,311.359444 C226.576258,309.697112 228.341354,308.481691 229.441815,307.00614 C235.019854,301.072899 240.011118,294.584944 244.596404,287.792303 C245.322219,286.764051 246.044848,285.733292 246.774511,284.708022" class="place" data-place="lomas_de_zamora"></path>
                    <path d="M135.223691,159.088618 C136.552983,159.091427 137.749472,159.208983 138.499213,160.493899 C141.902579,164.018376 145.251101,167.583034 148.841753,170.908601 C152.051034,174.015831 155.260365,177.123101 158.469674,180.230326 C156.330556,181.665522 156.002107,184.596011 154.468556,186.518472 C153.802511,187.231309 152.936708,187.622101 152.36214,188.337534 C152.150624,189.511051 150.620719,188.931697 150.280472,188.158719 C149.538472,188.667112 149.103601,188.765348 148.364416,188.428893 C148.008444,189.541225 146.536157,188.313725 146.552674,189.878899 C145.539843,190.151663 144.257129,190.80627 144.825365,192.204792 C144.112798,192.564157 143.762534,193.598511 142.973056,193.75568 C141.941803,193.683803 141.263427,194.544978 140.260376,194.679281 C139.074343,194.993618 139.757994,196.862517 138.614848,197.010674 C137.364343,196.907629 137.237775,198.179904 136.728635,199.051376 C136.207258,199.667747 135.611084,200.736961 134.573719,200.625427 C133.699388,201.312242 132.519455,200.91941 131.605472,201.322938 C131.250736,202.144792 130.443584,202.406562 129.667893,202.062876 C129.029618,202.158562 129.29991,203.575096 128.364028,203.057399 C127.53436,203.206337 128.106567,204.808101 126.89086,204.367427 C125.72464,204.237966 126.543579,205.923725 125.480618,206.099292 C124.98532,207.052382 123.818978,207.15573 123.162646,206.343916 C122.415264,206.658685 122.585011,208.205416 121.434635,208.093882 C120.241101,208.275292 120.632826,210.173893 119.354129,210.185236 C118.248871,210.532478 118.177011,212.181601 116.953781,212.195803 C116.698404,213.135904 115.392972,213.426815 115.459101,214.604831 C115.577483,215.722579 115.325404,217.518781 113.853534,217.052994 C112.645742,217.065972 111.901961,217.417118 111.81632,218.676489 C111.216916,218.856169 109.656882,218.383803 109.858129,219.604596 C110.213275,220.769062 108.498303,220.846949 108.2175,221.843551 C107.067202,222.108961 106.211871,222.878253 105.016461,223.024556 C104.222056,224.102466 102.86927,224.243399 101.921135,225.228399 C100.252685,225.105 101.213489,226.779933 100.067663,226.909129 C99.7911629,227.792292 98.5395393,229.085652 97.7931067,227.881657 C94.0206461,224.597174 90.2930506,221.261388 86.5698876,217.919449 C86.3985225,217.059579 84.8639382,216.218753 84.1273596,215.376073 C79.2369326,210.878635 74.3438483,206.389854 69.5432809,201.805955 C67.5465955,200.050017 65.5873258,198.270736 63.6397303,196.453798 C65.2616067,194.658545 66.8549438,192.830904 68.4826011,191.040371 C69.6693652,192.760028 70.4277528,190.455264 71.4101236,189.64427 C72.2278315,188.199764 73.3258596,190.496742 74.2645843,190.931522 C75.1730674,192.660579 75.8762809,189.978652 76.7024888,190.180848 C78.678382,188.383691 80.6544719,185.952669 82.5373989,183.823388 C85.1371292,180.741011 87.926236,177.750034 90.465573,174.663764 C91.7349157,173.033343 92.9614944,171.137079 94.4600281,169.743708 C95.3921011,169.799994 96.1185787,171.211764 97.0038371,171.772157 C99.8580955,174.322022 102.680107,176.914927 105.519539,179.483545 C106.994022,177.998169 108.293494,176.19218 109.832135,174.847775 C110.991663,175.357292 111.713708,176.767764 112.734697,177.566022 C117.393202,173.153534 122.586916,169.416213 127.473955,165.289264 C130.071039,163.229511 132.625281,161.110792 135.223197,159.05264" class="place" data-place="san_miguel"></path>
                    <path d="M152.679371,216.701556 C152.826315,218.530146 152.337056,220.342416 151.86241,222.081292 C151.217972,222.907264 151.199966,224.043107 150.537438,224.859421 C150.152899,225.63318 149.728837,226.466034 150.135933,227.335904 C150.300258,227.991287 151.1505,228.46114 150.762736,229.246803 C150.49741,229.990421 150.811556,230.937927 150.068169,231.432635 C149.115663,232.308219 150.607112,233.260528 150.636489,234.180888 C150.11486,235.345781 151.15741,236.277354 151.500348,237.312837 C151.916011,237.977354 152.040517,238.741017 151.714758,239.473163 C151.53182,240.305416 151.57982,241.17641 151.101865,241.916393 C151.064618,243.312972 150.99714,244.737562 150.68173,246.120067 C149.90641,246.01009 150.323685,247.477461 149.619989,247.158494 C145.135534,247.058045 140.663607,246.647506 136.199657,246.198781 C134.844635,246.02386 133.478764,246.126904 132.132382,246.327371 C132.161371,245.543573 131.86914,244.903601 131.246045,244.459899 C125.911444,239.156365 120.594258,233.829579 115.265011,228.521326 C115.570904,228.019427 116.429798,227.474713 116.409157,226.984899 C114.146506,224.843663 111.883831,222.702382 109.621197,220.561152 C110.418129,220.174511 109.297522,219.167039 110.202803,218.885787 C110.765051,218.310938 111.704275,219.332562 112.018287,218.401601 C111.89618,217.527916 112.292719,217.198989 113.118331,217.220466 C113.777494,216.828197 114.955483,217.545191 115.235556,216.52573 C115.731713,215.498169 114.990916,213.786219 116.295904,213.229427 C116.718067,212.569972 116.960421,212.056129 117.832803,211.939618 C118.209051,210.919202 119.079876,210.235247 120.064669,209.949837 C120.486556,209.291079 120.646084,208.063876 121.6645,208.088079 C122.548022,207.981567 122.500421,206.91327 122.988646,206.400809 C123.510978,206.374854 123.823983,207.168371 124.442758,206.943708 C125.16082,206.827669 125.42132,205.915062 126.086455,205.686803 C126.202764,205.194174 126.021056,204.316421 126.779775,204.400893 C127.317669,204.469736 128.00582,204.387916 127.853494,203.639871 C127.845236,202.806927 128.706719,203.331596 129.096096,203.023326 C129.170601,202.495539 129.454966,201.800281 130.083719,202.174275 C130.653775,202.467826 131.300612,201.984202 131.522848,201.440618 C132.006601,200.85282 132.782174,201.443427 133.347511,201.037955 C134.052506,201.202916 134.4935,200.442371 135.19982,200.627506 C135.854775,200.105433 136.039798,199.504736 136.731882,200.547404 C142.175522,205.798854 147.34386,211.34559 152.674871,216.720607" class="place" data-place="hurlingham"></path>
                    <path d="M385.901916,316.634404 C387.432567,316.218758 388.630753,318.94909 390.344854,319.352612 C392.075843,320.38091 394.219927,320.952337 395.524742,322.47309 C398.005596,321.964697 400.373736,324.576135 403.04173,324.339303 C408.092017,325.108427 413.207292,325.199129 418.254433,325.613264 C421.773163,326.219506 425.412096,325.817191 428.920404,326.160792 C437.033219,328.354112 444.194315,333.239708 451.156118,337.92436 C457.151506,340.642483 463.1395,344.293427 469.812511,344.186742 C474.627691,344.865893 479.920854,343.839073 484.341124,346.344646 C465.812096,365.140674 447.397815,384.062084 428.540792,402.495629 C423.566449,408.132292 417.888292,412.979174 412.623039,418.293146 C414.302921,419.727607 410.634517,421.224371 409.906758,422.70832 C403.002545,430.000775 396.303596,437.487629 389.188899,444.558792 C388.371483,446.394787 383.730399,448.4225 386.446899,450.081281 C389.958135,451.686938 386.295393,453.577225 384.939888,455.375983 C382.66682,457.995736 380.298388,459.815708 377.964146,462.451522 C371.243635,456.021146 364.625691,449.471837 357.749831,443.221624 C370.213787,430.010343 382.747865,417.227011 395.040837,403.913899 C393.327978,398.409421 391.407989,392.811343 390.050444,387.284522 C388.427944,382.87091 387.645955,377.629545 386.084264,373.012135 C384.926478,370.272624 383.373056,367.176483 380.092298,367.129719 C377.464,366.451438 375.231792,364.671382 372.448646,364.408742 C368.738354,363.465096 365.223146,361.485876 361.983652,359.506309 C359.227826,356.307551 354.996472,354.870365 352.866433,351.055107 C350.493657,348.098725 348.455657,344.985916 346.445848,341.743601 C359.868871,333.857809 372.545174,324.660045 385.90673,316.65432" class="place" data-place="berazategui"></path>
                </g>
                
                <path d="M382.531462,199.932022 C382.586518,200.331461 382.267417,200.559551 382.064608,200.872472 C381.801124,201.279214 381.603372,201.584831 381.580338,202.073034 C381.548315,202.762921 380.57472,203.279214 380.096068,203.742697 C379.797754,204.031461 379.47472,204.47809 379.116855,204.690449 C378.780338,204.889326 378.328653,204.809551 378.012922,205.051124 C377.370226,205.542135 376.60281,205.874719 375.863484,206.199438 C372.739327,207.570225 369.944945,209.506742 366.843821,210.924719 C366.008428,211.307303 365.203933,211.765169 364.389327,212.189888 C364.125844,212.327528 363.851686,212.396067 363.583709,212.519663 C363.208428,212.693258 363.022473,213.022472 362.69045,213.239888 C361.949439,213.726405 361.233147,214.099438 360.454495,214.511236 C359.998315,214.751685 359.748877,214.832022 359.515731,215.286517 C359.317417,215.673596 359.155619,216.07191 359.00281,216.479214 C358.717417,217.239888 358.726405,218.123596 358.411237,218.892697 C358.089889,219.67809 357.601686,220.403933 357.270787,221.196067 C356.631462,222.72191 356.121349,224.309551 355.516855,225.850562 C354.893259,227.441573 354.205057,229.003371 353.577529,230.595506 C352.979776,232.113483 352.492698,233.677528 351.870226,235.182022 C350.589889,238.275281 349.4309,241.431461 348.264046,244.568539 C347.170787,247.508427 345.953933,250.386517 344.855619,253.328652 C344.226405,255.01573 343.509551,256.68764 342.926967,258.389888 C342.789889,258.791011 342.653372,259.189888 342.499439,259.584831 C342.353372,259.959551 342.470226,260.473034 342.504495,260.862921 C342.578091,261.699438 342.607866,262.534831 342.63708,263.373596 C342.697754,265.113483 342.801686,266.851685 342.87472,268.591573 C342.910113,269.439326 342.953933,270.286517 343.001124,271.133708 C343.023596,271.542135 342.96854,271.782022 342.853372,272.183146 C342.698877,272.722472 342.830338,272.987079 343.000001,273.533708 C343.470787,275.053371 343.292698,276.957303 343.374158,278.541573 C343.456181,280.129775 343.526405,281.719101 343.603372,283.307303 C343.642136,284.103933 343.535394,285.153933 343.861799,285.898315 C344.189327,286.644944 344.939327,287.106742 345.535394,287.63427 C346.775282,288.732022 347.967417,289.889888 349.183147,291.014607 C351.64045,293.288202 354.09663,295.567416 356.5809,297.811798 C359.232023,300.206742 361.791574,302.693258 364.460113,305.070787 C364.998315,305.550562 365.703372,305.758427 366.121349,306.397191 C366.613484,307.150562 366.93708,307.969663 367.350563,308.769663 C367.685956,309.418539 368.912922,309.241573 369.475844,309.629775 C370.161237,310.103371 370.742698,310.671348 371.347192,311.244944 C373.847192,313.612921 376.384832,315.943258 378.951686,318.238764 C379.245507,318.502247 379.515731,318.780899 379.79045,319.064607 C380.072473,319.356742 380.153933,319.817416 380.464046,320.051124 C380.643821,320.187079 381.260113,320.792135 381.456181,320.780337 C381.610675,320.770787 381.960675,320.126405 382.089889,319.955618 C383.239889,318.442697 384.348877,316.907303 385.453933,315.360674 C387.39663,312.641573 389.247192,309.849438 391.136518,307.092135 C391.584271,306.438202 391.99045,305.680337 392.525844,305.093258 C392.788765,304.805056 393.20899,304.514045 393.384271,304.176966 C393.594383,303.773596 393.710675,303.432584 393.983709,303.035955 C394.911799,301.688202 395.836518,300.338764 396.761799,298.988764 C397.68708,297.639888 398.544383,296.235955 399.507866,294.914045 C400.447754,293.623596 401.239889,292.246067 402.595507,291.327528 C403.991012,290.382584 405.552248,289.935955 407.101124,289.312921 C407.861799,289.006742 408.691012,288.860674 409.485394,289.142135 C410.235394,289.407303 410.832585,289.870225 411.635394,289.98427 C412.397192,290.092135 413.126405,289.680899 413.89045,289.652809 C414.314046,289.637079 414.610113,289.761798 414.980338,289.951685 C415.264608,290.097191 415.503933,290.490449 415.824158,290.555618 C416.794383,290.752247 415.945507,289.169663 416.344383,288.85618 C416.743821,288.542697 418.033147,289.12191 417.958428,289.673596 C417.900563,290.100562 416.173035,290.63427 417.026967,291.203371 C417.344383,291.415169 417.739889,291.33764 418.105619,291.32809 C418.493259,291.318539 418.856181,291.530337 419.254495,291.547753 C419.76236,291.570225 420.004495,291.535955 420.480338,291.356742 C420.797754,291.237079 420.970787,290.742135 421.312922,290.575843 C421.643259,290.41573 422.038765,290.41573 422.38708,290.297191 C422.738765,290.177528 422.910113,289.781461 423.126405,289.511798 C423.675844,288.82809 424.105057,288.384831 425.025844,288.330899 C425.789889,288.285955 426.555057,288.388764 427.314608,288.245506 C427.744945,288.164045 428.155619,288.057303 428.578091,287.939888 C428.950001,287.835955 429.375282,288.020225 429.760113,288 C430.665169,287.952809 430.821911,286.991011 431.489889,286.548876 C431.858428,286.304494 432.223596,286.058989 432.582023,285.800562 C432.967417,285.523034 432.909551,285.201685 432.938203,284.75618 C432.998877,283.796629 433.757866,283.547753 434.508428,283.07809 C434.920787,282.819663 435.333709,282.561798 435.746068,282.303371 C436.036518,282.12191 436.337641,282.164045 436.654495,282.089888 C437.397192,281.916292 437.889889,281.06573 438.406742,280.546629 C438.832585,280.118539 440.255057,279.83427 439.98708,279.066292 C439.7309,278.329775 439.101124,277.173596 439.320226,276.360112 C439.419102,275.99382 439.814046,275.671348 440.058428,275.402247 C440.449439,274.97191 440.721349,274.72191 441.222473,274.431461 C441.924158,274.025281 442.480338,273.008427 442.966855,272.366292 L444.858102,272.055376 L447.314327,270.417893 L449.156495,270.417893 L453.250203,268.575725 L452.840832,264.686702 L450.998664,259.774253 L450.998664,257.318028 L447.723698,252.610264 L446.2909,249.335298 L439.740967,242.785365 L439.536282,238.486972 L437.898799,235.00732 L428.687956,229.6855 L425.617675,226.410534 L423.16145,226.410534 L420.705226,226.001163 L414.359978,221.498084 L411.699068,219.451236 L407.605366,217.404382 L403.716344,214.743472 L400.032007,211.059135 L393.891445,205.532629 L388.77431,204.713888 L386.932141,199.801438 L383.043119,197.754584 L382.531462,199.932022 Z" class="place" data-place="caba" fill="#00DBBA"></path>
            </g>
        </g>
    </g>
</svg>