<svg width="20px" height="47px" viewBox="0 0 20 47" version="1.1" xmlns="http://www.w3.org/2000/svg" xmlns:xlink="http://www.w3.org/1999/xlink">
        <g>
            <path d="M13.7474233,11.5384615 L6.25257833,11.5384615 C2.60297827,11.5384615 -0.270789785,14.6219119 0.0203213575,18.2254481 L0.683278431,26.4319046 C0.757971168,27.3565037 1.53726741,28.0691227 2.47368453,28.0691227 L2.47368651,28.0691227 C3.41809938,28.0691227 4.20119773,28.7935716 4.26563096,29.7268664 L5.34993105,45.4323716 C5.40787306,46.2716255 6.11206309,46.9230769 6.96131385,46.9230769 L13.0386382,46.9230769 C13.8878909,46.9230769 14.592079,46.2716255 14.650021,45.4323716 L15.7343211,29.7268664 C15.7987563,28.7935716 16.5818526,28.0691227 17.5262635,28.0691227 L17.5263748,28.0691227 C18.4627999,28.0691227 19.2420961,27.3564978 19.3167829,26.4318928 L19.9796823,18.2254048 C20.2707656,14.6218843 17.3970034,11.5384615 13.7474233,11.5384615 Z" id="Path"></path>
            <circle id="Oval" cx="10" cy="5.38461538" r="5.38461538"></circle>
        </g>
</svg>